# xmcd
#
# Track frame offsets:
#	183
#	19468
#	35213
#	58658
#	77298
#	96690
#	117358
#	136218
#	154135
#	175488
#	201178
#	214375
#	233998
#	258330
#	275730
#	294063
#
# Disc length: 4200 seconds
#
# Revision: 3
# Processed by: cddbd v1.4PL0 Copyright (c) Steve Scherf et al.
# Submitted via: EasyCDDAExtractor 5.1.0
#
DISCID=f5106610
DTITLE=Rui Veloso - Ao Vivo
DYEAR=1988
DGENRE=blues
TTITLE0=Sayago Blues
TTITLE1=Sei Duma Camponesa
TTITLE2=Bairro Do Oriente
TTITLE3=Chico Fininho
TTITLE4=Saiu Para A Rua
TTITLE5=Balada Da Fiandeira
TTITLE6=Everyday I have The Blues
TTITLE7=A Ilha
TTITLE8=A Gente Nao Le
TTITLE9=Guardador De Margens
TTITLE10=Fado Do Ladrao Enamorado
TTITLE11=Afurada
TTITLE12=Estrela Do Rock And Roll
TTITLE13=Cavaleiro Andante
TTITLE14=Porto Covo
TTITLE15=Porto Sentido
EXTD=
EXTT0=
EXTT1=
EXTT2=
EXTT3=
EXTT4=
EXTT5=
EXTT6=
EXTT7=
EXTT8=
EXTT9=
EXTT10=
EXTT11=
EXTT12=
EXTT13=
EXTT14=
EXTT15=
PLAYORDER=
